<svg id="Layer_1" data-name="Layer 1" xmlns="http://www.w3.org/2000/svg" viewBox="0 0 400 400"><defs><style>.cls-1{fill:none;stroke:#000;stroke-linecap:round;stroke-miterlimit:10;stroke-width:34.17px;}</style></defs><path d="M308,143.25a33.57,33.57,0,0,1-2.58,12.57,38.44,38.44,0,0,1-5.79,9.61,57.37,57.37,0,0,1-13.77,11.81c-9.28,5.89-18.58,9.21-27.82,11.91a162.13,162.13,0,0,1-27.79,5.22,199.73,199.73,0,0,1-27.72.85,261.85,261.85,0,0,1-27.07-2.3,243.84,243.84,0,0,1-26.84-5.13c-4.48-1.14-9-2.44-13.52-4a125.15,125.15,0,0,1-13.85-5.53c-2.36-1.12-4.76-2.37-7.23-3.84a59.66,59.66,0,0,1-7.66-5.37,40,40,0,0,1-8.13-9,32.71,32.71,0,0,1-3.58-7.33,29.45,29.45,0,0,1,0-19.09,33,33,0,0,1,3.55-7.36,42,42,0,0,1,8.06-9.09,60.9,60.9,0,0,1,7.6-5.54c2.45-1.53,4.84-2.83,7.19-4a129.84,129.84,0,0,1,13.8-5.87c4.53-1.65,9-3.06,13.51-4.25A228.31,228.31,0,0,1,175.18,92c4.5-.65,9-1.21,13.54-1.62s9.09-.65,13.69-.79a197,197,0,0,1,27.93,1,165.92,165.92,0,0,1,28,5.57c9.29,2.84,18.61,6.32,27.94,12.36a56.69,56.69,0,0,1,13.68,12.2,39.23,39.23,0,0,1,5.67,9.79A34.68,34.68,0,0,1,308,143.25Zm-34.18,0c0,.22.05.44,0,.31a4.67,4.67,0,0,0-.72-1.12,22.28,22.28,0,0,0-5.37-4.42,54.82,54.82,0,0,0-8.54-4.27,89.76,89.76,0,0,0-10-3.3,128,128,0,0,0-21.92-3.72,162.47,162.47,0,0,0-22.85-.3,227.23,227.23,0,0,0-46.19,7.38c-3.7,1-7.34,2.13-10.82,3.38a94.15,94.15,0,0,0-9.82,4.08c-1.49.74-2.89,1.5-4.12,2.26a24.75,24.75,0,0,0-3,2.14,10.69,10.69,0,0,0-1,.93,4.61,4.61,0,0,0,.46-1,7.27,7.27,0,0,0,.36-2.36,7.56,7.56,0,0,0-.36-2.36,4.61,4.61,0,0,0-.46-1,10.69,10.69,0,0,0,1,.93,22.34,22.34,0,0,0,3,2.14c1.23.76,2.63,1.52,4.12,2.26a91.18,91.18,0,0,0,9.82,4.08c3.48,1.24,7.12,2.36,10.82,3.38a227.23,227.23,0,0,0,46.19,7.38,162.47,162.47,0,0,0,22.85-.3A129,129,0,0,0,249.12,156a86.47,86.47,0,0,0,10-3.3,53.11,53.11,0,0,0,8.54-4.27,22.48,22.48,0,0,0,5.37-4.42,4.67,4.67,0,0,0,.72-1.12C273.82,142.81,273.75,143,273.77,143.25Z"/><path d="M308,254.8a33.52,33.52,0,0,1-2.4,12.65,39.23,39.23,0,0,1-5.67,9.79,56.42,56.42,0,0,1-13.68,12.19c-9.32,6-18.65,9.5-27.94,12.32a165.87,165.87,0,0,1-27.95,5.53,192.33,192.33,0,0,1-27.91,1,239,239,0,0,1-54.13-7.86,144.55,144.55,0,0,1-27.35-10c-2.35-1.18-4.74-2.48-7.2-4a61.7,61.7,0,0,1-7.61-5.54,42.17,42.17,0,0,1-8.08-9.11,32.5,32.5,0,0,1-3.56-7.38A30,30,0,0,1,93,254.81a30.4,30.4,0,0,1,1.61-9.56,32.47,32.47,0,0,1,3.59-7.35,41.29,41.29,0,0,1,8.12-9,58.93,58.93,0,0,1,7.64-5.45c2.47-1.48,4.88-2.73,7.25-3.85A127.53,127.53,0,0,1,135,214c4.55-1.54,9.05-2.83,13.53-4a237.6,237.6,0,0,1,26.86-5.18,262.42,262.42,0,0,1,27.1-2.3c4.56-.14,9.17-.16,13.82,0s9.28.42,13.92.91a163.68,163.68,0,0,1,27.82,5.24A123.28,123.28,0,0,1,272,213.58a90,90,0,0,1,13.93,7.18,62.19,62.19,0,0,1,6.93,5.09,53.06,53.06,0,0,1,6.79,6.79,38.76,38.76,0,0,1,5.8,9.61A33.23,33.23,0,0,1,308,254.8Zm-34.17,0c0,.22.05.44,0,.31a4.67,4.67,0,0,0-.72-1.12,22.28,22.28,0,0,0-5.37-4.42,54.82,54.82,0,0,0-8.54-4.27,89.76,89.76,0,0,0-10-3.3,128,128,0,0,0-21.92-3.72,162.47,162.47,0,0,0-22.85-.3,227.23,227.23,0,0,0-46.19,7.38c-3.7,1-7.34,2.13-10.82,3.38a93.26,93.26,0,0,0-9.82,4.08c-1.49.74-2.89,1.5-4.12,2.26a24.75,24.75,0,0,0-3,2.14,10.69,10.69,0,0,0-1,.93,4.61,4.61,0,0,0,.46-1,7.27,7.27,0,0,0,.36-2.36,7.56,7.56,0,0,0-.36-2.36,4.61,4.61,0,0,0-.46-1,10.69,10.69,0,0,0,1,.93,22.34,22.34,0,0,0,3,2.14c1.23.76,2.63,1.52,4.12,2.26a91.18,91.18,0,0,0,9.82,4.08c3.48,1.24,7.12,2.36,10.82,3.38a227.23,227.23,0,0,0,46.19,7.38,162.47,162.47,0,0,0,22.85-.3,129,129,0,0,0,21.92-3.72,86.47,86.47,0,0,0,10-3.3,53.11,53.11,0,0,0,8.54-4.27,22.48,22.48,0,0,0,5.37-4.42,4.67,4.67,0,0,0,.72-1.12C273.89,254.37,273.82,254.58,273.84,254.8Z"/><path class="cls-1" d="M224.42,109.46c53.37,0,96.64,40.16,96.64,89.7s-43.27,89.7-96.64,89.7"/><path d="M220.31,159.76a105.28,105.28,0,0,0,42.06-9.34,79.55,79.55,0,0,0,17.41-10.91,55.62,55.62,0,0,0,12.4-14.3,38.24,38.24,0,0,0,5.32-16,33.53,33.53,0,0,0-.22-8.08,32.14,32.14,0,0,0-2.1-7.66,40.79,40.79,0,0,0-9.68-13.86,63.9,63.9,0,0,0-15.71-10.91c-12-6-26.11-9.35-40.43-10.09-1.79-.1-3.59-.15-5.4-.17s-3.46,0-5.71,0l-12.66.21-25.33.43L78.94,60.87h0L102.86,37c-1.86,27.18-2.7,54.35-3.15,81.53l-.19,10.19-.08,10.19-.15,20.38L99.48,200c.25,13.59.38,27.18.72,40.76s.68,27.18,1.28,40.76c1,27.18,2.42,54.35,4.8,81.53L78.62,335.71h0l101.45,1.37,25.36.34,12.68.17,3,.05c1,0,1.86,0,2.74,0,1.77,0,3.54,0,5.31-.11,14.08-.59,28-3.69,39.79-9.47a62.66,62.66,0,0,0,15.45-10.45A39.63,39.63,0,0,0,294,304.38a30.49,30.49,0,0,0,2.13-7.35,32.37,32.37,0,0,0,.32-7.82,37,37,0,0,0-5-15.66,54.59,54.59,0,0,0-12.08-14.25,78.26,78.26,0,0,0-17.18-11,104.83,104.83,0,0,0-41.89-9.73l-17.09-.5v-33.7l17.09,0a139.73,139.73,0,0,1,56.18,11.47,114.37,114.37,0,0,1,25.45,15.3,91.59,91.59,0,0,1,20.71,23,74.59,74.59,0,0,1,10.9,30.69,70.34,70.34,0,0,1,0,16.66,68.69,68.69,0,0,1-4,16.26,77.5,77.5,0,0,1-17.61,27,100.64,100.64,0,0,1-24.5,18C269.89,372.05,251,376.63,232.14,378c-2.36.17-4.71.29-7.07.36s-4.66.06-6.72.1l-12.65.15-25.31.3-101.24,1.2h0l-17.29.2V19.86h156.4c2,0,4.5,0,6.83.07s4.71.18,7.07.36c18.82,1.4,37.75,6,55.29,15.25a100.83,100.83,0,0,1,24.5,18,77.5,77.5,0,0,1,17.61,27,69.06,69.06,0,0,1,4,16.26,70.34,70.34,0,0,1,0,16.66,74.45,74.45,0,0,1-10.9,30.69,91.59,91.59,0,0,1-20.71,23,115,115,0,0,1-25.45,15.3,139.72,139.72,0,0,1-56.18,11.46l-17.09,0V160.1Z"/></svg>