<?xml version="1.0" encoding="utf-8"?>
<!-- Generator: Adobe Illustrator 25.4.1, SVG Export Plug-In . SVG Version: 6.00 Build 0)  -->
<svg version="1.1" id="Layer_1" xmlns="http://www.w3.org/2000/svg" xmlns:xlink="http://www.w3.org/1999/xlink" x="0px" y="0px"
	 viewBox="0 0 400 400" style="enable-background:new 0 0 400 400;" xml:space="preserve">
<style type="text/css">
	.st0{fill:#EC2024;}
	.st1{fill:none;stroke:#2E3191;stroke-miterlimit:10;}
	.st2{fill:none;stroke:#EC1C24;stroke-miterlimit:10;}
	.st3{fill:#231F20;}
	.st4{fill:none;stroke:#231F20;stroke-width:10;stroke-linecap:round;stroke-miterlimit:10;}
	.st5{fill:none;stroke:#231F20;stroke-width:34.173;stroke-linecap:round;stroke-miterlimit:10;}
</style>
<g>
	<path class="st0" d="M-1962,372.25c-1.72,0-3.28-0.03-4.64-0.05c-0.95-0.02-1.79-0.03-2.48-0.03h-27.5c-2.9,0-5.26-2.34-5.26-5.23
		v-89.36c0-2.89,2.35-5.23,5.26-5.23h27.5c0.62,0,1.45-0.02,2.44-0.04c15.12-0.32,31.69,0.41,39.98,8.47
		c3.15,3.07,4.82,7.01,4.82,11.41c0,5.24-2.14,9.8-5.67,13.66c3.56,4.06,5.67,8.98,5.67,14.77c0,5.88-1.69,11.16-4.98,15.67
		c3.26,4.01,4.98,8.7,4.98,13.82c0,5.11-1.87,9.65-5.42,13.12C-1935.59,371.34-1951.55,372.25-1962,372.25z M-1991.37,361.71h22.24
		c0.74,0,1.63,0.01,2.65,0.03c7.57,0.11,25.29,0.4,31.79-5.97c1.55-1.52,2.28-3.32,2.28-5.67c0-2.52-0.8-4.68-2.1-6.53
		c-0.88,0.6-1.8,1.18-2.77,1.73c-7.65,4.35-18,6.85-28.4,6.85c-12.56,0-21.81-3.35-25.7-8.91V361.71z M-1965.45,332.65
		c-9.88,0-16.74,2.51-17.44,4.27c0.01,1.1,5.19,4.78,17.22,4.78c8.1,0,16.04-1.76,22.03-4.85c-4.02-1.76-8.07-2.69-10.16-3.08
		C-1957.98,332.97-1961.91,332.65-1965.45,332.65z M-1991.37,314.08v16.56c3.87-5.32,13.09-8.43,25.94-8.43
		c10.21,0,20.41,2.17,28,5.94c0.85,0.43,1.68,0.87,2.47,1.34c1.7-2.62,2.56-5.58,2.56-8.87c0-3.18-1.28-5.92-3.41-8.23
		c-9.99,5.93-23.62,8.99-34.87,8.99c-5.91,0-10.82-0.85-14.57-2.53C-1988.24,317.51-1990.16,315.81-1991.37,314.08z
		 M-1965.98,302.54c-11.25,0-16.9,3.25-16.9,5.07c0,0.69,1.05,1.3,1.93,1.7c2.32,1.04,5.96,1.61,10.25,1.61
		c8.12,0,17.09-1.92,24.3-5C-1952.58,303.63-1959.83,302.54-1965.98,302.54z M-1991.37,282.82v18.14
		c3.82-5.61,12.84-8.89,25.39-8.89c10.9,0,21.87,2.43,30.14,7.18c2.17-2.19,3.43-4.58,3.43-7.06c0-1.6-0.51-2.81-1.66-3.93
		c-6.24-6.07-25.92-5.63-32.39-5.49c-1.09,0.03-2,0.04-2.68,0.04H-1991.37z"/>
</g>
<g>
	<path class="st0" d="M-1647,377.25c-1.72,0-3.28-0.03-4.64-0.05c-0.95-0.02-1.79-0.03-2.48-0.03h-27.5c-2.9,0-5.26-2.34-5.26-5.23
		v-89.36c0-2.89,2.35-5.23,5.26-5.23h27.5c0.62,0,1.45-0.02,2.44-0.04c15.12-0.32,31.69,0.41,39.98,8.47
		c3.15,3.07,4.82,7.01,4.82,11.41c0,5.24-2.14,9.8-5.67,13.66c3.56,4.06,5.67,8.98,5.67,14.77c0,5.88-1.69,11.16-4.98,15.67
		c3.26,4.01,4.98,8.7,4.98,13.82c0,5.11-1.87,9.65-5.42,13.12C-1620.59,376.34-1636.55,377.25-1647,377.25z M-1676.37,366.71h22.24
		c0.74,0,1.63,0.01,2.65,0.03c7.57,0.11,25.29,0.4,31.79-5.97c1.55-1.52,2.28-3.32,2.28-5.67c0-2.52-0.8-4.68-2.1-6.53
		c-0.88,0.6-1.8,1.18-2.77,1.73c-7.65,4.35-18,6.85-28.4,6.85c-12.56,0-21.81-3.35-25.7-8.91V366.71z M-1650.45,337.65
		c-9.88,0-16.74,2.51-17.44,4.27c0.01,1.1,5.19,4.78,17.22,4.78c8.1,0,16.04-1.76,22.03-4.85c-4.02-1.76-8.07-2.69-10.16-3.08
		C-1642.98,337.97-1646.91,337.65-1650.45,337.65z M-1676.37,319.08v16.56c3.87-5.32,13.09-8.43,25.94-8.43
		c10.21,0,20.41,2.17,28,5.94c0.85,0.43,1.68,0.87,2.47,1.34c1.7-2.62,2.56-5.58,2.56-8.87c0-3.18-1.28-5.92-3.41-8.23
		c-9.99,5.93-23.62,8.99-34.87,8.99c-5.91,0-10.82-0.85-14.57-2.53C-1673.24,322.51-1675.16,320.81-1676.37,319.08z
		 M-1650.98,307.54c-11.25,0-16.9,3.25-16.9,5.07c0,0.69,1.05,1.3,1.93,1.7c2.32,1.04,5.96,1.61,10.25,1.61
		c8.12,0,17.09-1.92,24.3-5C-1637.58,308.63-1644.83,307.54-1650.98,307.54z M-1676.37,287.82v18.14
		c3.82-5.61,12.84-8.89,25.39-8.89c10.9,0,21.87,2.43,30.14,7.18c2.17-2.19,3.43-4.58,3.43-7.06c0-1.6-0.51-2.81-1.66-3.93
		c-6.24-6.07-25.92-5.63-32.39-5.49c-1.09,0.03-2,0.04-2.68,0.04H-1676.37z"/>
</g>
<path class="st1" d="M-1909.39,452.25c18.04,0,27.5,7.43,27.5,10s-9.46,10-27.5,10s-27.5-7.43-27.5-10
	S-1927.43,452.25-1909.39,452.25 M-1909.39,442.25c-20.71,0-37.5,8.95-37.5,20s16.79,20,37.5,20s37.5-8.95,37.5-20
	S-1888.68,442.25-1909.39,442.25L-1909.39,442.25z"/>
<path class="st2" d="M-1859.39,272.25c9.17,0,18.02,2.54,24.29,6.96c3.07,2.17,8.21,6.74,8.21,13.04s-5.15,10.88-8.21,13.04
	c-6.26,4.42-15.11,6.96-24.29,6.96c-9.17,0-18.02-2.54-24.29-6.96c-3.07-2.17-8.21-6.74-8.21-13.04s5.15-10.88,8.21-13.04
	C-1877.41,274.79-1868.56,272.25-1859.39,272.25 M-1859.39,262.25c-23.47,0-42.5,13.43-42.5,30s19.03,30,42.5,30
	c23.47,0,42.5-13.43,42.5-30S-1835.92,262.25-1859.39,262.25L-1859.39,262.25z"/>
<path class="st2" d="M-1859.39,332.25c9.17,0,18.02,2.54,24.29,6.96c3.07,2.17,8.21,6.74,8.21,13.04s-5.15,10.88-8.21,13.04
	c-6.26,4.42-15.11,6.96-24.29,6.96c-9.17,0-18.02-2.54-24.29-6.96c-3.07-2.17-8.21-6.74-8.21-13.04s5.15-10.88,8.21-13.04
	C-1877.41,334.79-1868.56,332.25-1859.39,332.25 M-1859.39,322.25c-23.47,0-42.5,13.43-42.5,30s19.03,30,42.5,30
	c23.47,0,42.5-13.43,42.5-30S-1835.92,322.25-1859.39,322.25L-1859.39,322.25z"/>
<path class="st2" d="M-1856.89,302.25c16.26,0,30,9.16,30,20s-13.74,20-30,20s-30-9.16-30-20S-1873.15,302.25-1856.89,302.25
	 M-1856.89,292.25c-22.09,0-40,13.43-40,30s17.91,30,40,30s40-13.43,40-30S-1834.8,292.25-1856.89,292.25L-1856.89,292.25z"/>
<g>
	<path class="st3" d="M-702.45,294.32c-0.04,0.64-0.11,1.29-0.21,1.92c-0.12,0.62-0.34,1.18-0.55,1.75c-0.1,0.3-0.23,0.56-0.36,0.79
		l-0.42,0.72c-0.14,0.23-0.29,0.49-0.44,0.7l-0.47,0.58c-0.64,0.83-1.31,1.4-1.99,2.01c-0.34,0.29-0.68,0.51-1.02,0.77
		c-0.34,0.24-0.68,0.51-1.02,0.7c-2.71,1.71-5.44,2.69-8.14,3.48c-5.4,1.54-10.88,2-16.24,1.82c-5.34-0.2-10.53-0.9-15.77-2.21
		c-2.63-0.67-5.25-1.49-8.01-2.78c-1.38-0.67-2.81-1.43-4.36-2.7c-0.77-0.66-1.59-1.41-2.38-2.64c-0.77-1.17-1.51-2.89-1.52-4.92
		c0-2.02,0.73-3.75,1.5-4.93c0.79-1.23,1.59-2,2.36-2.67c1.53-1.3,2.95-2.1,4.33-2.8c2.75-1.34,5.36-2.26,7.99-2.96
		c2.63-0.7,5.24-1.22,7.87-1.61c2.63-0.41,5.28-0.65,7.96-0.72c5.4-0.16,10.92,0.33,16.36,1.91c2.73,0.81,5.45,1.86,8.18,3.62
		c1.36,0.92,2.74,1.96,4,3.6l0.46,0.6c0.15,0.22,0.29,0.47,0.43,0.71l0.4,0.74c0.14,0.24,0.25,0.5,0.35,0.8
		c0.2,0.59,0.41,1.15,0.52,1.77C-702.54,293.03-702.48,293.68-702.45,294.32z M-712.45,294.32c-0.01,0.18,0.05,0.12-0.24-0.24
		c-0.1-0.17-0.37-0.38-0.6-0.61c-0.3-0.22-0.58-0.46-0.95-0.68c-1.46-0.91-3.4-1.67-5.43-2.21c-4.11-1.1-8.6-1.42-13.09-1.18
		c-4.53,0.25-9.17,0.98-13.51,2.16c-2.16,0.59-4.27,1.32-6.04,2.18c-0.87,0.42-1.65,0.91-2.09,1.29c-0.21,0.17-0.34,0.34-0.28,0.27
		c0.03-0.04,0.23-0.41,0.22-0.97c0.01-0.57-0.19-0.93-0.22-0.97c-0.07-0.07,0.07,0.09,0.28,0.27c0.44,0.37,1.22,0.86,2.09,1.29
		c1.76,0.86,3.87,1.6,6.04,2.18c4.35,1.18,8.98,1.91,13.51,2.16c4.49,0.24,8.98-0.09,13.09-1.18c2.03-0.54,3.97-1.3,5.43-2.21
		c0.37-0.22,0.65-0.46,0.95-0.68c0.22-0.22,0.5-0.44,0.6-0.61C-712.4,294.19-712.46,294.14-712.45,294.32z"/>
</g>
<g>
	<path class="st3" d="M-702.43,326.96c-0.03,0.64-0.09,1.29-0.18,1.92c-0.11,0.62-0.32,1.19-0.52,1.77c-0.1,0.3-0.22,0.57-0.35,0.8
		l-0.4,0.74c-0.14,0.24-0.28,0.5-0.43,0.71l-0.46,0.6c-1.26,1.64-2.64,2.68-4,3.6c-2.73,1.76-5.46,2.81-8.18,3.61
		c-5.44,1.57-10.95,2.06-16.35,1.89c-5.37-0.16-10.58-0.94-15.83-2.32c-2.63-0.7-5.27-1.55-8.01-2.92c-1.38-0.7-2.8-1.5-4.33-2.8
		c-0.77-0.68-1.58-1.45-2.36-2.68c-0.76-1.18-1.5-2.91-1.5-4.94c0.01-2.03,0.75-3.76,1.52-4.93c0.79-1.22,1.61-1.99,2.38-2.65
		c1.54-1.29,2.97-2.06,4.36-2.72c2.76-1.29,5.39-2.11,8.02-2.78c5.25-1.32,10.44-2.02,15.79-2.22c5.37-0.17,10.86,0.28,16.26,1.83
		c2.71,0.79,5.41,1.83,8.14,3.52c1.35,0.9,2.73,1.9,4.01,3.49l0.47,0.58c0.15,0.21,0.3,0.46,0.44,0.7l0.42,0.72
		c0.14,0.23,0.26,0.49,0.36,0.79c0.21,0.58,0.43,1.14,0.55,1.75C-702.54,325.68-702.47,326.32-702.43,326.96z M-712.43,326.96
		c-0.01,0.18,0.05,0.12-0.24-0.24c-0.1-0.17-0.37-0.38-0.6-0.61c-0.3-0.22-0.58-0.46-0.95-0.68c-1.46-0.91-3.4-1.67-5.43-2.21
		c-4.11-1.1-8.6-1.42-13.09-1.18c-4.53,0.25-9.17,0.98-13.51,2.16c-2.16,0.59-4.27,1.32-6.04,2.18c-0.87,0.42-1.65,0.91-2.09,1.29
		c-0.21,0.17-0.34,0.34-0.28,0.27c0.03-0.04,0.23-0.41,0.22-0.97c0.01-0.57-0.19-0.93-0.22-0.97c-0.07-0.07,0.07,0.09,0.28,0.27
		c0.44,0.37,1.22,0.86,2.09,1.29c1.76,0.86,3.87,1.6,6.04,2.18c4.35,1.18,8.98,1.91,13.51,2.16c4.49,0.24,8.98-0.09,13.09-1.18
		c2.03-0.54,3.97-1.3,5.43-2.21c0.37-0.22,0.65-0.46,0.95-0.68c0.22-0.22,0.5-0.44,0.6-0.61
		C-712.38,326.84-712.44,326.79-712.43,326.96z"/>
</g>
<path class="st4" d="M-726.89,284.43c15.62,0,28.28,11.75,28.28,26.25c0,14.5-12.66,26.25-28.28,26.25"/>
<g>
	<path class="st3" d="M-728.1,299.15c4.3-0.1,8.57-0.98,12.31-2.74c3.72-1.73,6.96-4.33,8.72-7.38c0.91-1.51,1.41-3.1,1.56-4.68
		c0.16-1.6-0.1-3.16-0.68-4.61c-1.15-2.9-3.93-5.49-7.43-7.24c-3.5-1.76-7.64-2.73-11.83-2.95c-0.53-0.03-1.05-0.04-1.58-0.05
		l-1.67,0.01l-3.71,0.06l-7.41,0.13l-29.65,0.5l7-7c-0.3,3.98-0.4,7.95-0.61,11.93l-0.29,11.93c-0.13,3.98-0.09,7.95-0.14,11.93
		l0.06,11.93c0.12,7.95,0.25,15.9,0.6,23.86l0.54,11.93c0.28,3.98,0.47,7.95,0.85,11.93l-8.09-8l29.69,0.4l7.42,0.1l3.71,0.05
		c1.24,0.02,2.19,0.03,3.25-0.01c4.12-0.17,8.19-1.08,11.64-2.77c3.45-1.68,6.17-4.16,7.31-6.94c0.58-1.38,0.85-2.88,0.72-4.44
		c-0.12-1.53-0.59-3.09-1.46-4.58c-1.69-3.01-4.87-5.64-8.56-7.39c-3.71-1.78-7.96-2.71-12.26-2.85l-5-0.16v-9.86l5,0.02
		c5.57,0.02,11.2,1.04,16.44,3.36c2.62,1.15,5.14,2.63,7.45,4.48c2.3,1.85,4.41,4.08,6.06,6.74c1.66,2.64,2.81,5.74,3.19,8.98
		c0.4,3.22-0.02,6.58-1.17,9.63c-1.14,3.07-3.01,5.72-5.15,7.9c-2.16,2.18-4.61,3.9-7.17,5.26c-5.13,2.71-10.67,4.05-16.18,4.46
		c-1.36,0.1-2.8,0.13-4.04,0.13l-3.7,0.04l-7.41,0.09l-29.62,0.35l-5.06,0.06v-5.06v-95.43v-5h5h29.65h7.41h3.71l2,0.02
		c0.69,0.02,1.38,0.06,2.07,0.1c5.51,0.41,11.05,1.75,16.18,4.46c2.56,1.36,5.01,3.08,7.17,5.26c2.14,2.18,4.01,4.84,5.15,7.9
		c1.15,3.05,1.57,6.41,1.17,9.63c-0.38,3.23-1.53,6.34-3.19,8.98c-1.65,2.66-3.75,4.89-6.06,6.74c-2.31,1.85-4.83,3.32-7.45,4.48
		c-5.24,2.31-10.87,3.34-16.44,3.36l-5,0.02v-9.9L-728.1,299.15z"/>
</g>
<g>
	<g>
		<path class="st3" d="M307.95,143.25c-0.02,4.44-1.02,8.83-2.58,12.57c-1.56,3.75-3.62,6.97-5.79,9.61
			c-4.37,5.3-9.17,8.84-13.77,11.81c-9.28,5.89-18.58,9.21-27.82,11.91c-9.25,2.64-18.51,4.25-27.79,5.22
			c-9.25,0.96-18.61,1.18-27.72,0.85c-9.12-0.29-18.11-1.08-27.07-2.3c-8.96-1.24-17.88-2.85-26.84-5.13
			c-4.48-1.14-8.98-2.44-13.52-3.97c-4.54-1.53-9.13-3.29-13.85-5.53c-2.36-1.12-4.76-2.37-7.23-3.84
			c-2.46-1.47-5.01-3.17-7.66-5.37c-2.63-2.2-5.46-4.91-8.13-8.97c-1.32-2.02-2.61-4.48-3.58-7.33c-0.98-2.85-1.6-6.15-1.61-9.54
			c-0.01-3.38,0.61-6.7,1.57-9.55c0.96-2.86,2.24-5.33,3.55-7.36c2.66-4.08,5.46-6.84,8.06-9.09c2.63-2.26,5.15-4.01,7.6-5.54
			c2.45-1.53,4.84-2.83,7.19-4.01c4.7-2.35,9.27-4.22,13.8-5.87c4.53-1.65,9.02-3.06,13.51-4.25c8.98-2.4,17.9-4.26,26.91-5.54
			c4.5-0.65,9.01-1.21,13.54-1.62c4.54-0.38,9.09-0.65,13.69-0.79c9.17-0.28,18.61-0.01,27.93,1.04c9.34,1.09,18.66,2.82,27.96,5.57
			c9.29,2.84,18.61,6.32,27.94,12.36c4.63,3.04,9.36,6.78,13.68,12.2c2.14,2.71,4.16,5.99,5.67,9.79
			C307.07,134.39,307.99,138.81,307.95,143.25z M273.77,143.25c-0.02,0.22,0.05,0.44,0,0.31c-0.06-0.12-0.22-0.52-0.72-1.12
			c-0.98-1.2-2.88-2.9-5.37-4.42c-2.46-1.54-5.38-3-8.54-4.27c-3.16-1.27-6.54-2.36-10.02-3.3c-6.99-1.88-14.41-3.06-21.92-3.72
			c-7.54-0.65-15.1-0.72-22.85-0.3c-15.48,0.86-31.33,3.36-46.19,7.38c-3.7,1.02-7.34,2.13-10.82,3.38
			c-3.49,1.24-6.82,2.61-9.82,4.08c-1.49,0.74-2.89,1.5-4.12,2.26c-1.23,0.75-2.29,1.52-3.02,2.14c-0.75,0.61-1.1,1.12-0.97,0.93
			c0.05-0.09,0.27-0.42,0.46-1c0.2-0.57,0.37-1.44,0.36-2.36c0.01-0.92-0.17-1.79-0.36-2.36c-0.19-0.58-0.41-0.91-0.46-1
			c-0.13-0.19,0.22,0.32,0.97,0.93c0.72,0.63,1.78,1.39,3.02,2.14c1.23,0.76,2.63,1.52,4.12,2.26c2.99,1.47,6.33,2.85,9.82,4.08
			c3.48,1.24,7.12,2.36,10.82,3.38c14.86,4.02,30.71,6.52,46.19,7.38c7.75,0.42,15.31,0.35,22.85-0.3
			c7.51-0.66,14.93-1.85,21.92-3.72c3.49-0.93,6.87-2.03,10.02-3.3c3.16-1.26,6.08-2.72,8.54-4.27c2.48-1.52,4.39-3.22,5.37-4.42
			c0.5-0.6,0.66-1,0.72-1.12C273.82,142.81,273.75,143.02,273.77,143.25z"/>
	</g>
	<g>
		<path class="st3" d="M308.01,254.8c0.05,4.44-0.88,8.86-2.4,12.65c-1.51,3.8-3.53,7.08-5.67,9.79
			c-4.32,5.42-9.05,9.16-13.68,12.19c-9.32,6.04-18.65,9.5-27.94,12.32c-9.3,2.74-18.62,4.45-27.95,5.53
			c-9.31,1.07-18.75,1.31-27.91,1.02c-18.35-0.61-36.19-3.08-54.13-7.86c-8.99-2.45-17.97-5.34-27.35-10.02
			c-2.35-1.18-4.74-2.48-7.2-4.01c-2.45-1.53-4.97-3.28-7.61-5.54c-2.61-2.26-5.41-5.02-8.08-9.11c-1.32-2.03-2.6-4.51-3.56-7.38
			c-0.97-2.86-1.58-6.18-1.57-9.57c0.01-3.39,0.64-6.71,1.61-9.56c0.97-2.86,2.26-5.32,3.59-7.35c2.68-4.06,5.5-6.8,8.12-9.02
			c2.65-2.23,5.17-3.96,7.64-5.45c2.47-1.48,4.88-2.73,7.25-3.85c4.73-2.24,9.32-4,13.87-5.54c4.55-1.54,9.05-2.83,13.53-3.97
			c8.97-2.28,17.89-3.97,26.86-5.18c8.97-1.22,17.97-2.01,27.1-2.3c4.56-0.14,9.17-0.16,13.82,0c4.64,0.14,9.28,0.42,13.92,0.91
			c9.28,0.98,18.56,2.6,27.82,5.24c4.63,1.32,9.26,2.9,13.89,4.84c4.63,1.94,9.29,4.21,13.93,7.18c2.32,1.46,4.64,3.16,6.93,5.09
			c2.29,1.92,4.61,4.16,6.79,6.79c2.17,2.64,4.23,5.86,5.8,9.61C307,245.98,307.99,250.36,308.01,254.8z M273.84,254.8
			c-0.02,0.22,0.05,0.44,0,0.31c-0.06-0.12-0.22-0.52-0.72-1.12c-0.98-1.2-2.88-2.9-5.37-4.42c-2.46-1.54-5.38-3-8.54-4.27
			c-3.16-1.27-6.54-2.36-10.02-3.3c-6.99-1.88-14.41-3.06-21.92-3.72c-7.54-0.65-15.1-0.72-22.85-0.3
			c-15.48,0.86-31.33,3.36-46.19,7.38c-3.7,1.02-7.34,2.13-10.82,3.38c-3.49,1.24-6.83,2.61-9.82,4.08
			c-1.49,0.74-2.89,1.5-4.12,2.26c-1.23,0.75-2.29,1.52-3.02,2.14c-0.75,0.61-1.1,1.12-0.97,0.93c0.05-0.09,0.27-0.42,0.46-1
			c0.2-0.57,0.37-1.44,0.36-2.36c0.01-0.92-0.17-1.79-0.36-2.36c-0.19-0.58-0.41-0.91-0.46-1c-0.13-0.19,0.22,0.32,0.97,0.93
			c0.72,0.63,1.78,1.39,3.02,2.14c1.23,0.76,2.63,1.52,4.12,2.26c2.99,1.47,6.33,2.85,9.82,4.08c3.48,1.24,7.12,2.36,10.82,3.38
			c14.86,4.02,30.71,6.52,46.19,7.38c7.75,0.42,15.31,0.35,22.85-0.3c7.51-0.66,14.93-1.85,21.92-3.72
			c3.49-0.93,6.87-2.03,10.02-3.3c3.16-1.26,6.08-2.72,8.54-4.27c2.48-1.52,4.39-3.22,5.37-4.42c0.5-0.6,0.66-1,0.72-1.12
			C273.89,254.37,273.82,254.58,273.84,254.8z"/>
	</g>
	<path class="st5" d="M224.42,109.46c53.37,0,96.64,40.16,96.64,89.7s-43.27,89.7-96.64,89.7"/>
	<g>
		<path class="st3" d="M220.31,159.76c14.7-0.29,29.27-3.39,42.06-9.34c6.38-2.97,12.3-6.64,17.41-10.91
			c5.11-4.26,9.37-9.14,12.4-14.3c3.04-5.17,4.84-10.58,5.32-15.98c0.25-2.7,0.18-5.46-0.22-8.08c-0.38-2.63-1.08-5.18-2.1-7.66
			c-2.01-4.95-5.31-9.65-9.68-13.86c-4.35-4.22-9.74-7.9-15.71-10.91c-11.97-6.04-26.11-9.35-40.43-10.09
			c-1.79-0.1-3.59-0.15-5.4-0.17c-1.84-0.02-3.46,0.02-5.71,0.05l-12.66,0.21l-25.33,0.43L78.94,60.87l0,0l23.92-23.92
			c-1.86,27.18-2.7,54.35-3.15,81.53l-0.19,10.19l-0.08,10.19l-0.15,20.38L99.48,200c0.25,13.59,0.38,27.18,0.72,40.76
			c0.41,13.59,0.68,27.18,1.28,40.76c1.04,27.18,2.42,54.35,4.8,81.53l-27.66-27.34l0,0l101.45,1.37l25.36,0.34l12.68,0.17
			l3.05,0.05c0.97,0.03,1.86,0.03,2.74,0.03c1.77,0,3.54-0.03,5.31-0.11c14.08-0.59,28.01-3.69,39.79-9.47
			c5.87-2.87,11.17-6.41,15.45-10.45c4.3-4.03,7.54-8.53,9.55-13.26c1.02-2.37,1.73-4.81,2.13-7.35c0.42-2.53,0.53-5.2,0.32-7.82
			c-0.39-5.25-2.06-10.55-4.99-15.66c-2.92-5.11-7.06-9.98-12.08-14.25c-5.01-4.29-10.85-8-17.18-11.02
			c-12.67-6.06-27.19-9.3-41.89-9.73l-17.09-0.5v-33.7l17.09,0.02c19.04,0.02,38.27,3.59,56.18,11.47
			c8.94,3.94,17.56,8.98,25.45,15.3c7.88,6.31,15.07,13.96,20.71,23.04c5.64,9.04,9.63,19.62,10.9,30.69
			c0.65,5.53,0.65,11.1-0.02,16.66c-0.66,5.56-2.01,11.05-3.99,16.26c-3.93,10.45-10.26,19.59-17.61,27.01
			c-7.37,7.46-15.76,13.33-24.5,17.98c-17.54,9.27-36.47,13.85-55.29,15.25c-2.36,0.17-4.71,0.29-7.07,0.36
			c-2.38,0.08-4.66,0.06-6.72,0.1l-12.65,0.15l-25.31,0.3l-101.24,1.2l0,0l-17.29,0.2v-17.29V36.94V19.86h17.09h0h101.32h25.33
			h12.66c2,0,4.5,0,6.83,0.07c2.36,0.07,4.71,0.18,7.07,0.36c18.82,1.4,37.75,5.98,55.29,15.25c8.74,4.65,17.12,10.52,24.5,17.98
			c7.35,7.42,13.68,16.56,17.61,27.01c1.97,5.2,3.33,10.7,3.99,16.26c0.67,5.56,0.67,11.13,0.02,16.66
			c-1.26,11.07-5.26,21.65-10.9,30.69c-5.64,9.08-12.83,16.73-20.71,23.04c-7.9,6.32-16.51,11.35-25.45,15.3
			c-17.91,7.88-37.14,11.44-56.18,11.46l-17.09,0.02v-33.86L220.31,159.76z"/>
	</g>
</g>
</svg>
